# xmcd
# 
# Track frame offsets:
#     150
#     16589
#     35128
#     51079
# 
# Disc length: 1159
# 
# Revision: 0
# Processed by: cddbd v1.5.2PL0 Copyright (c) Steve Scherf et al.
# Submitted via: fre:ac v1.0.31
# 
DISCID=28048504
DTITLE=StoneWall - Rebel Metal
DYEAR=2006
DGENRE=Metal
TTITLE0=Battle Drum
TTITLE1=War In Myself
TTITLE2=Firefly (You Die Tonite)
TTITLE3=War Pigs (Black Sabbath cover)
EXTD=
EXTT0=
EXTT1=
EXTT2=
EXTT3=
PLAYORDER=
